<svg width="200" height="200" viewBox="0 0 200 200" fill="none" xmlns="http://www.w3.org/2000/svg">
<g clip-path="url(#clip0_282_13)">
<path d="M154.643 66.8664H136.964C135 66.8664 133.036 65.9735 131.607 64.545L124.464 56.5093C122.321 54.1878 118.929 54.0093 116.429 55.9735L115.893 56.5093L109.821 63.4735C107.857 65.795 104.821 67.045 101.786 67.045H5.17857C2.5 74.9021 0.714286 83.295 0 91.6878H91.4286C93.0357 91.6878 94.6429 90.9735 95.7143 89.9021L104.286 80.9735C105.357 79.9021 106.786 79.1878 108.393 79.1878H108.75C110.357 79.1878 111.964 79.9021 113.036 81.1521L120.179 89.1878C121.607 90.795 123.571 91.6878 125.536 91.6878H200C199.286 83.295 197.5 74.9021 194.821 67.045H154.643V66.8664ZM96.0714 116.152L88.9286 108.116C86.7857 105.795 83.3929 105.616 80.8929 107.581L80.3571 108.116L74.1071 115.081C72.1429 117.402 69.2857 118.652 66.25 118.652H1.42857C3.03571 127.224 5.89286 135.616 9.64286 143.652H55.1786C56.7857 143.652 58.2143 142.938 59.4643 141.866L68.0357 132.938C69.1071 131.866 70.5357 131.152 72.1429 131.152H72.5C74.1071 131.152 75.7143 131.866 76.7857 133.116L83.9286 141.152C85.3571 142.759 87.3214 143.652 89.2857 143.652H190.357C194.107 135.795 196.964 127.402 198.571 118.652H101.429C99.2857 118.652 97.3214 117.759 96.0714 116.152ZM131.071 38.295L139.643 29.3664C140.714 28.295 142.143 27.5807 143.75 27.5807H144.107C145.714 27.5807 147.321 28.295 148.393 29.3664L155.536 37.4021C156.964 39.0093 158.929 39.7235 160.893 39.7235H180.179C146.607 -4.56217 83.5714 -13.3122 39.1071 20.0807C31.7857 25.6164 25.1786 32.2235 19.4643 39.7235H126.786C128.571 40.0807 130 39.3664 131.071 38.295ZM61.9643 168.295C59.8214 168.295 57.8571 167.402 56.6071 165.974L49.4643 157.938C47.3214 155.616 43.75 155.438 41.4286 157.581L41.0714 157.938L34.8214 164.902C32.8571 167.224 30 168.474 26.9643 168.474H26.6071C64.2857 208.831 128.036 210.795 168.571 172.759C170.179 171.331 171.607 169.724 173.214 168.116H61.9643V168.295Z" fill="black"/>
</g>
<defs>
<clipPath id="clip0_282_13">
<rect width="200" height="200" fill="white"/>
</clipPath>
</defs>
</svg>
