<svg width="1113" height="1012" viewBox="0 0 1113 1012" fill="none" xmlns="http://www.w3.org/2000/svg">
<path d="M673.162 758.127L614.532 777.249M701.772 459.147L727.246 450.989L751.211 427.337L769.742 403.323L782.512 379.539L789.373 356.527L790.341 334.795L785.565 314.786L775.306 296.879L759.959 281.384L739.967 268.548L715.839 258.552L688.165 251.511L657.536 247.489L624.561 246.505L589.878 248.523L554.129 253.464L517.936 261.211L481.94 271.601L446.749 284.47L412.985 299.587L381.224 316.707L352.057 335.55L325.893 323.634L305.425 324.454L281.756 342.625L271.579 350.438L252.572 368.247L242.28 377.882L224.504 395.806L214.59 407.476L198.078 426.926L177.872 458.704L164.511 490.563L158.028 513.74L155.467 522.882L149.033 556.252L150.789 588.407L161.064 618.592L180.022 646.052L207.631 670L243.577 689.713L287.287 704.502L337.924 713.809L394.339 717.19L455.136 714.384L518.707 705.356L583.28 690.255L647.015 669.475L708.091 643.607L764.801 613.405L815.619 579.806L859.247 543.777L894.717 506.37M565.027 219.307L518.609 229.319L515.671 230.173L472.469 242.68L427.364 259.143L383.998 278.462M222.337 447.789L218.119 472.754L220.269 496.571L228.985 518.697L244.283 538.574L266.064 555.661L294.017 569.465L327.649 579.543L366.288 585.534L409.062 587.192L454.939 584.385L502.769 577.114L551.289 565.509L599.218 549.867L645.259 530.613L688.198 508.274L726.934 483.472M373.181 541.84L368.356 531.417L360.543 523.44L341.962 504.499L338.088 502.808L304.965 488.413L262.404 485.59L220.269 496.554L184.553 519.78M828.061 674.416L835.742 651.863L831.491 618.805L815.602 579.789L790.243 540.494L759.155 506.747L726.951 483.44M868.701 296.419L826.091 298.75L785.532 314.786L752.786 342.198L732.367 377.028L726.918 414.353M868.16 640.439L900.791 604.985L913.331 578.099L939.363 539.986L956.319 502.398L964.148 466.221L963.574 430.144L946.947 395.773L916.302 368L875.874 350.864M875.874 350.864L831.425 346.859L789.307 356.511L760.025 375.337L755.445 378.276L737.16 404.866L734.37 408.937M875.874 350.864L867.897 381.164L851.992 412.679L828.274 444.653L797.104 476.283L759.089 506.747L715.1 535.176L666.203 560.782L613.695 582.826L558.987 600.668L503.59 613.832L449.03 621.973L396.768 624.944L348.167 622.761L304.391 615.588L266.442 603.754M875.874 350.864L876.039 322.419L868.669 296.403M359.098 531.434L324.038 519.107L283.89 521.503L244.25 538.541L210.782 567.955M210.782 567.955L188.295 605.592M210.782 567.955L193.908 545.107L184.536 519.78M210.782 567.955L235.058 587.701L266.442 603.754M438.23 458.113L426.691 424.858L406.387 390.044L380.207 358.743L351.991 335.517M900.758 604.952L925.28 568.973L939.347 539.969L938.083 504.893M938.083 504.893L921.308 468.585L891.189 436.266L852.009 412.663L809.464 401.173L769.693 403.29L738.211 418.44M938.083 504.893L911.312 543.613L875.546 581.94L831.475 618.805L780.083 653.143L722.667 683.936L660.786 710.264L596.165 731.323L530.673 746.522L466.183 755.484L404.483 758.028L347.215 754.22M938.083 504.893L955.515 466.763L963.558 430.127L962.425 395.789L952.544 364.439L945.748 350.618L936.54 331.89L918.961 304.873L894.045 281.712L867.634 260.949L838.007 243.107L816.325 234.621L802.898 229.368L778.064 223.41L763.16 219.832L738.194 215.86L698.309 211.001L655.616 210.016L638.595 221.441M772.155 245.946L739.918 268.516L714.378 301.754L699.211 340.917L696.519 380.393L710.028 389.962L720.254 401.337L726.901 414.321L729.183 425.745L728.921 426.319M721.731 439.45L721.945 439.073L723.487 436.89L724.768 435.708L727.23 432.54L728.724 430.636L729.659 429.438L738.227 418.424L749.356 398.038L755.478 378.243L756.594 359.482L752.786 342.148L744.284 326.572L731.366 313.03L714.41 301.754L693.844 292.907L670.142 286.62L643.831 282.943L615.451 281.909L585.545 283.502L554.67 287.671L523.402 294.302L492.281 303.264L461.866 314.393L432.715 327.507L405.353 342.378L380.272 358.743L357.982 376.322L338.926 394.804L323.529 413.861L312.154 433.131L305.129 452.237L302.684 470.784L304.998 488.38L312.154 504.614L324.104 519.091L340.715 531.45L367.716 540.248L373.362 542.086L373.838 542.251M894.734 506.353L865.665 471.654L828.34 444.637L788.257 429.175L751.194 427.304L730.102 435.806L725.802 437.546L722.273 438.974M386.641 548.504L356.439 556.137L327.649 579.477L304.44 615.572L290.275 659.364L287.287 704.486L295.839 744.355L314.518 773.342L340.468 787.655M599.956 432.146L569.459 438.334L539.159 446.968L509.614 457.867L481.333 470.867M391.696 534.356L393.666 503.645L381.667 470.226L357.161 438.777L323.496 413.861L285.498 399.088L248.649 396.511L218.135 406.327L198.061 426.926M655.665 210L610.954 212.807L565.011 219.29L557.756 229.631L554.096 253.464L554.637 287.704L559.381 327.491L567.654 366.999L578.224 400.451L589.517 423.135L599.94 432.179L630.092 428.551L659.358 427.567M919.01 304.905L891.024 282.714L854.257 273.325L813.764 278.249L775.273 296.895L744.268 326.637L725.08 363.191L720.254 401.386L725.933 421.05L727.968 428.108M375.594 543.121L375.479 542.825L373.067 536.227L366.041 517.006L362.791 513.559L339.648 489.02L302.634 470.817L260.106 465.105L218.103 472.754L182.583 492.648L158.487 521.881L149 556.268M772.155 245.996L795.594 260.571L813.748 278.249L826.074 298.767L832.098 321.795L831.458 346.892L823.941 373.565L809.48 401.222L788.24 429.224L760.55 456.882L726.951 483.472L698.292 473.723L665.054 494.88L628.303 513.92L588.959 530.334L548.039 543.679L506.594 553.626L465.707 559.912L426.412 562.423L389.694 561.143L356.423 556.17L327.321 547.7L303.012 536.03L266.048 555.628L235.075 587.717L214.607 627.767L207.581 670L214.886 708.376L251.407 728.877M251.407 728.877L271.054 757.93L299.466 773.063L318.72 779.924L340.436 787.672L387.642 797.093L440.019 800.918L496.286 798.882L554.966 790.955L614.45 777.265L617.404 776.363L670.175 759.161L673.08 758.143L729.232 734.146L781.347 705.963L828.028 674.416L868.143 640.439L878.55 615.736L913.315 578.099L911.312 543.646L894.685 506.386L921.325 468.618L938.756 431.457L946.947 395.789L946.077 362.387L936.557 331.906L907.307 308.073L891.008 282.697L867.667 260.949L833.28 253.464L806.476 237.165L772.155 245.979L744.054 234.703L711.965 226.824L676.577 222.409L638.595 221.441M251.407 728.877L243.528 689.697L248.764 645.888L266.442 603.754M251.407 728.877L295.806 744.355L347.215 754.22M638.595 221.441L598.742 223.886L557.723 229.647L516.245 238.577L474.997 250.51L434.668 265.233L395.931 282.517L359.443 302.082L325.86 323.634L295.806 346.81L269.872 371.25L248.649 396.528L232.645 422.199L222.337 447.772L187.786 464.268L182.583 492.631L184.553 519.796L160.293 551.951L170.19 580.101L188.328 605.608L180.006 646.052L186.851 683.575L214.902 708.392L235.255 737.593L271.07 757.946L314.502 773.375L364.712 783.289L420.552 787.245L480.643 784.98L543.41 776.412L607.096 761.705L669.896 741.237L730.037 715.582L785.811 685.495L835.742 651.879L878.566 615.736L875.563 581.956L859.231 543.777L831.754 506.731L797.153 476.283L760.534 456.849L727.197 450.989L698.276 473.69L677.052 478.45L657.832 490.662L648.788 496.407L617.601 512.558L584.248 526.46L549.565 537.77L514.44 546.206L479.741 551.557L446.338 553.724L415.053 552.69L387.33 548.619L386.772 548.472L384.655 547.355L382.718 546.929L376.497 545.616L374.691 545.107L361.626 541.364L327.304 547.684L293.984 569.416L266.442 603.754M638.595 221.441L624.479 246.521L615.385 281.942L612.71 322.682L616.846 362.781L627.154 396.446L642.042 418.982L659.325 427.55L687.147 429.257L712.244 433.459L712.982 433.673L722.388 436.529L723.143 436.89M347.215 754.22L337.892 713.793L338.22 667.719L348.183 622.761L366.255 585.501L389.694 561.127L415.07 552.69M347.215 754.22L364.695 783.256L387.659 797.077M724.144 435.051L722.552 433.213L706.499 414.632L696.503 380.409L680.04 372.81L661 367.295L639.793 363.946L616.863 362.781L592.652 363.815L567.637 366.999L542.294 372.252L517.082 379.474L492.461 388.518L468.907 399.236L446.847 411.432L426.707 424.875L408.882 439.335L393.748 454.551L381.635 470.226L372.837 486.066L384.967 519.583L382.767 546.469M962.458 395.789L951.904 374.221L946.093 362.354L915.941 336.65L876.071 322.403L832.115 321.746L790.325 334.762L756.594 359.514L736.931 390.208L735.535 392.375L732.466 411.76L731.399 418.523M367.223 537.392L362.365 532.566L348.462 518.73L312.105 504.63L270.332 504.532L228.969 518.664L193.925 545.107L170.19 580.085L161.031 618.592L167.531 655.195M802.947 229.352L774.535 224.576L738.227 215.843L711.981 226.808L688.115 251.511L670.109 286.637L660.622 327.195L661.016 367.311L671.127 401.239L689.346 424.333L712.26 433.476L712.999 433.689M484.402 457.44L480.135 432.458L468.94 399.22L452.329 362.453L432.698 327.524L412.952 299.571L395.948 282.5L383.998 278.43L343.111 300.309L314.666 318.496L305.408 324.421M409.226 519.961L420.618 500.74V472.606L408.914 439.319L387.002 405.588L357.966 376.322L326.024 355.772L295.823 346.794L271.579 350.421M446.388 553.74L426.445 562.407L409.062 587.176L396.817 624.977L391.631 670.542L394.339 717.207L404.516 758.061L420.568 787.245L440.068 800.918M352.057 335.534L326.041 355.788L303.701 377.094L285.531 399.105L271.973 421.395L263.405 443.537L260.155 465.089L262.437 485.59L270.381 504.548L283.972 521.52L303.061 536.046L340.715 531.483L361.708 541.381M698.407 211.001L676.658 222.409L657.553 247.506L643.88 282.976L637.692 323.765L639.891 363.946L650.084 397.743L666.679 420.476L687.229 429.274M479.823 551.59L465.772 559.912L454.988 584.385L449.129 622.022L449.161 667.604L455.169 714.433L466.248 755.55L480.693 785.013L496.352 798.932M484.435 457.489L460.98 470.62L439.576 485.147L430.679 502.25M514.489 546.272L506.643 553.658L502.802 577.147L503.672 613.914L509.237 658.872L518.74 705.421L530.755 746.62L543.476 776.477L555.064 791.02M549.664 537.852L548.121 543.728L551.371 565.558L559.102 600.75L570.296 644.477L583.329 690.321L596.263 731.405L607.178 761.77L614.565 777.315M611.036 212.872L598.856 223.935L589.927 248.589L585.594 283.6L586.579 323.995L592.75 363.864L603.173 397.414L616.272 419.934L630.158 428.584M454.906 485.787L461.012 470.62L458.304 444.703L446.946 411.465L428.414 375.633L405.386 342.444L381.257 316.74L359.525 302.115L343.177 300.359M781.445 705.996L785.893 685.511L780.181 653.192L764.867 613.438L742.084 572.058L715.215 535.225L688.263 508.29L665.103 494.896L648.853 496.472M368.405 531.45L366.107 517.039L367.65 501.823L341.568 472.721L305.129 452.319L263.422 443.603L222.387 447.838M518.658 229.385L516.327 238.642L517.952 261.277L523.418 294.4L531.97 333.318L542.376 372.317L553.094 405.687L562.565 428.716L569.509 438.449M509.663 457.982L509.532 446.032L503.606 421.854L492.576 388.6L477.968 350.979L461.915 314.507L446.798 284.552L434.766 265.315L427.429 259.209M729.331 734.228L730.102 715.647L722.749 684.034L708.14 643.672L688.345 600.471L666.318 560.864L645.324 530.662L628.369 513.97L617.667 512.64M438.312 458.211L420.65 472.721L405.665 488.003L393.699 503.76L385.016 519.698L379.862 535.505L379.025 544.811M188.361 605.707L214.656 627.866L248.813 646.003L290.291 659.495L338.253 667.834L391.647 670.624L449.145 667.653L509.237 658.888L570.263 644.493L630.519 624.846L688.312 600.471L742.035 572.108L790.259 540.576L831.787 506.813L865.665 471.753L891.238 436.364L908.161 401.534L916.351 368.083L915.957 336.748L907.34 308.139L868.718 296.485L854.274 273.374L833.313 253.53L795.627 260.621L759.943 281.45L731.366 313.129L713.951 351.143L710.061 390.044L720.024 424.431L726.196 431.457M838.073 243.173L806.509 237.231L774.568 224.658L744.103 234.769L715.839 258.634L693.86 293.022L681.369 333.022L680.122 372.892L690.151 406.967L706.565 414.714L720.057 424.448L726.245 431.424M378.992 544.762L379.862 535.472L367.634 501.84L372.886 486.148L347.444 455.881L312.138 433.213L271.957 421.444L232.662 422.249L199.818 435.363L177.872 458.769M472.486 242.713L475.046 250.542L481.94 271.651L492.281 303.346L504.624 341.147L517.148 379.523L528.014 412.827L535.696 436.348M535.696 436.348L539.192 447.05M535.696 436.348L562.549 428.699L589.566 423.2L616.255 419.967L642.124 419.064L666.662 420.541L689.396 424.399L709.864 430.603L718.366 434.657L722.437 436.611M535.696 436.348L509.499 446.016L484.435 457.506L481.366 470.949L454.89 485.803L430.696 502.266L409.259 520.059L391.483 538.246L391.023 538.853L385.114 546.715L384.72 547.454M673.162 758.209L669.945 741.302L660.852 710.346L647.048 669.541L630.535 624.829L613.777 582.908L599.267 549.916L589.008 530.383L584.297 526.543M956.368 502.463L955.58 466.845L938.805 431.506L908.177 401.518L867.963 381.246L823.957 373.614L782.495 379.605L749.372 398.153L733.697 419.868L732.745 421.198L729.265 426.024M677.085 478.532L687.754 470.177L701.755 459.229L721.764 439.582L722.289 439.073L723.52 437.021L724.193 435.15L726.212 431.473V431.44L728.018 428.19L728.97 426.45L729.199 425.712L731.432 418.637L734.452 409.052L735.568 392.49L732.417 377.127L725.145 363.273L714 351.176L699.293 341.049L681.386 333.055L660.704 327.31L637.692 323.88L612.808 322.796L586.562 324.06L559.447 327.606L531.97 333.367L504.641 341.213L477.935 351.012L452.362 362.584L428.381 375.715L406.469 390.192L387.035 405.736L370.49 422.084L357.194 438.925L347.461 455.946L341.568 472.803L339.713 489.152L342.011 504.63L348.511 518.894L359.18 531.598L367.272 537.573L370.473 539.936L373.247 541.988L373.871 542.448L375.66 543.285L379.008 544.86H379.041L382.8 547.126L384.458 548.078L386.854 548.668L387.412 548.816M391.04 538.968L391.499 538.361L404.598 517.482L405.681 488.085L393.83 454.732L370.506 422.134L338.958 395.001L303.734 377.274L269.938 371.415L242.313 378.046L218.185 406.508L199.85 435.478L187.852 464.432L164.544 490.744L158.553 522.045L160.358 552.115L150.822 588.587L157.092 624.271L167.597 655.392L186.9 683.755L207.696 713.185L235.321 737.773M709.897 430.718L690.184 407.066L671.209 401.403L650.084 397.907L627.253 396.61L603.173 397.529L578.29 400.615L553.094 405.785L528.03 412.942L503.574 421.953L480.184 432.655L458.288 444.85L438.312 458.326L439.592 485.294L420.667 500.97L404.598 517.498L391.746 534.585L387.281 542.874L385.131 546.847" stroke="white" stroke-width="3.28279" stroke-linecap="round" stroke-linejoin="round"/>
</svg>
