<svg width="191" height="197" viewBox="0 0 191 197" fill="none" xmlns="http://www.w3.org/2000/svg">
<path d="M60.5026 107.776L63.3941 94.392L65.0542 81.4532L63.3941 69.8002L61.5225 64.2178" stroke="white" stroke-width="1.08501" stroke-linecap="round" stroke-linejoin="round"/>
<path d="M72.7959 119.629L74.559 106.566L76.3927 93.3721L77.8357 80.2596L78.7526 71.2432" stroke="white" stroke-width="1.08501" stroke-linecap="round" stroke-linejoin="round"/>
<path d="M105.021 73.2075L105.569 85.8588L106.404 98.8085L107.272 111.66L107.397 124.046L108.449 136.768L107.766 148.524L106.485 159.851L95.0874 166.904L81.7309 160.822L74.7488 154.849L67.1646 149.321L59.0704 144.178L49.7989 139.708L41.9597 134.706L32.1294 130.719L22.0062 126.959L13.2664 122.695L12.4581 111.427L13.5215 99.2587L14.5685 87.0035L14.6281 75.0575L14.0042 63.2743L13.9663 51.1438L12.1055 40.6733" stroke="white" stroke-width="1.08501" stroke-linecap="round" stroke-linejoin="round"/>
<path d="M115.209 106.338L115.768 118.87L116.755 131.499L117.026 143.673L115.48 154.844L113.739 165.764L105.536 171.211L103.203 181.714L102.292 189.808" stroke="white" stroke-width="1.08501" stroke-linecap="round" stroke-linejoin="round"/>
<path d="M14.319 157.377L14.6553 144.997" stroke="white" stroke-width="1.08501" stroke-linecap="round" stroke-linejoin="round"/>
<path d="M114.65 69.2197L115.187 81.4153L114.992 93.8495L115.209 106.338L107.272 111.66L95.0928 117.85L82.5989 111.812L74.559 106.566L69.3183 100.246L63.3941 94.392L55.5278 89.5149L45.5348 85.6632L36.5129 81.5075L25.4458 78.2904L14.6281 75.0571L2.99683 71.8942" stroke="white" stroke-width="1.08501" stroke-linecap="round" stroke-linejoin="round"/>
<path d="M1.22839 35.259L12.1056 40.6732L21.2849 38.5195L31.1422 33.7183L40.8585 28.0545L50.4392 21.2244L59.9439 16.396L68.8193 21.6584L77.8304 30.0726L86.9282 37.1903L96.1238 43.2447L105.428 50.2648L114.856 55.2992L124.448 57.0786L134.186 59.3247L141.787 54.9737L143.588 53.9429L152.832 50.1238L161.962 45.9735L171.017 40.223L179.306 34.25L188.903 37.4833" stroke="white" stroke-width="1.08501" stroke-linecap="round" stroke-linejoin="round"/>
<path d="M5.25895 152.592L5.19385 140.559L5.48682 129.389" stroke="white" stroke-width="1.08501" stroke-linecap="round" stroke-linejoin="round"/>
<path d="M186.57 72.7246L186.153 84.4482L186.006 96.0687L186.158 107.581L185.67 118.979L186.766 130.285L185.225 141.466L185.366 152.462L177.51 157.795L169.915 163.991L160.204 166.806L150.136 169.242L139.529 171.005L129.585 174.173" stroke="white" stroke-width="1.08501" stroke-linecap="round" stroke-linejoin="round"/>
<path d="M39.421 17.3071L50.4393 21.224L59.3093 26.1662L68.3204 33.8264L77.4236 41.4757L86.6191 46.125L96.1239 43.2443L105.487 41.492L114.726 37.6782L123.851 33.0018L132.857 28.8191L137.978 24.8371" stroke="white" stroke-width="1.08501" stroke-linecap="round" stroke-linejoin="round"/>
<path d="M178.216 134.755L178.753 146.43L177.51 157.795" stroke="white" stroke-width="1.08501" stroke-linecap="round" stroke-linejoin="round"/>
<path d="M30.6594 22.3906L40.8585 28.0544L49.696 31.8899L58.7179 40.1632L67.7994 45.5611L77.4235 41.476L86.9283 37.1902L96.3028 32.6006L105.563 28.3473L114.694 25.2659L123.851 33.0021L133.128 39.5339L142.584 42.165L152.192 44.308L161.962 45.9734L169.46 46.5376" stroke="white" stroke-width="1.08501" stroke-linecap="round" stroke-linejoin="round"/>
<path d="M133.421 145.203L133.172 156.796" stroke="white" stroke-width="1.08501" stroke-linecap="round" stroke-linejoin="round"/>
<path d="M12.1055 40.6733L22.4294 45.8163L32.6231 50.8129L42.4967 55.5218L45.6542 57.0029L52.2836 60.1168L56.2113 61.8583L61.5225 64.2182L65.0759 65.8132L70.9946 68.466L78.7525 71.2437L85.6369 70.2617L95.5594 65.0699L105.287 68.1623L115.057 66.4316L123.423 63.7788L124.687 63.3827L132.363 62.3412" stroke="white" stroke-width="1.08501" stroke-linecap="round" stroke-linejoin="round"/>
<path d="M160.617 143.424L160.584 154.914L160.205 166.806" stroke="white" stroke-width="1.08501" stroke-linecap="round" stroke-linejoin="round"/>
<path d="M95.1362 188.154L84.9751 182.805L76.8863 177.287L75.0309 166.513L74.7488 154.849L73.6312 143.456L66.7197 137.668L66.1229 125.961L67.0669 113.44L60.5026 107.776" stroke="white" stroke-width="1.08501" stroke-linecap="round" stroke-linejoin="round"/>
<path d="M188.903 37.4829L189.484 48.9352L190.449 60.8975L186.57 72.7242L178.774 76.3048L169.823 80.3084L159.152 83.6882L150.553 88.0554L141.759 92.4552L134.381 97.6143L124.388 101.732L115.209 106.338" stroke="white" stroke-width="1.08501" stroke-linecap="round" stroke-linejoin="round"/>
<path d="M23.3789 160.822L23.1619 149.435L22.5923 138.248L22.0063 126.959L23.1348 114.818L24.9468 102.296L25.7117 90.1334L25.4459 78.2905L24.2035 66.7242L24.4097 54.4636L22.4295 45.8159" stroke="white" stroke-width="1.08501" stroke-linecap="round" stroke-linejoin="round"/>
<path d="M1.22839 35.2586L11.8181 31.0977L21.2849 38.5191L30.144 44.3239L39.1116 50.3458L39.9038 50.8124L48.1823 55.7111L49.9347 56.7746L57.3725 61.2881L67.2515 56.4219L76.9895 50.4217L86.619 46.1251L95.9393 51.9299L105.379 56.5521L114.96 59.9644L124.687 63.3823L134.186 59.3243L141.412 58.6516L150.836 54.5991L160.096 50.6333L169.46 46.5374L179.252 42.0563L188.903 37.483" stroke="white" stroke-width="1.08501" stroke-linecap="round" stroke-linejoin="round"/>
<path d="M177.863 99.7031L176.989 111.052L178.14 123.188L178.216 134.755L170.664 139.615L169.959 150.753L169.915 163.99" stroke="white" stroke-width="1.08501" stroke-linecap="round" stroke-linejoin="round"/>
<path d="M13.2665 122.695L2.99146 118.094" stroke="white" stroke-width="1.08501" stroke-linecap="round" stroke-linejoin="round"/>
<path d="M3.39832 48.1323L13.9663 51.1433L24.4096 54.4635L35.3791 57.6588L45.6433 61.2285L55.7015 64.9718L63.3942 69.8002L71.3148 74.6664L77.8357 80.2596L86.1632 85.2345L95.1308 90.9471L105.569 85.8583L115.187 81.4152L122.723 76.1908L131.712 71.7422L140.522 67.3372L149.279 63.0243L159.076 59.2646L168.326 55.3748L178.742 52.0601L189.484 48.9352" stroke="white" stroke-width="1.08501" stroke-linecap="round" stroke-linejoin="round"/>
<path d="M76.8862 177.287L66.8335 172.866L57.7249 168.113L48.9959 163.301L42.2526 157.686L41.4713 146.543L41.9596 134.706L42.8005 122.608L42.909 110.738L43.8529 98.4013L45.5348 85.6632L46.1369 73.2777L45.6432 61.2287L42.4967 55.5215" stroke="white" stroke-width="1.08501" stroke-linecap="round" stroke-linejoin="round"/>
<path d="M58.593 178.871L57.725 168.113L57.2639 156.726L59.0704 144.178L59.9059 131.988" stroke="white" stroke-width="1.08501" stroke-linecap="round" stroke-linejoin="round"/>
<path d="M95.1365 188.154L95.1148 177.396L95.0877 166.904L95.0714 155.679L95.0768 143.131L95.0823 130.664L95.0931 117.85L95.1202 104.005L95.1311 90.9473L95.1528 77.3955" stroke="white" stroke-width="1.08501" stroke-linecap="round" stroke-linejoin="round"/>
<path d="M170.664 139.616L160.617 143.424" stroke="white" stroke-width="1.08501" stroke-linecap="round" stroke-linejoin="round"/>
<path d="M67.7342 183.488L66.8336 172.866L66.0688 161.593L67.1646 149.321L66.7197 137.668L59.9059 131.988L59.3308 120.324L51.5187 115.295L42.9091 110.738L33.9252 106.463L24.9467 102.297L13.5215 99.2584L3.69666 95.2168" stroke="white" stroke-width="1.08501" stroke-linecap="round" stroke-linejoin="round"/>
<path d="M86.4618 1.41162L96.8182 3.67383L105.862 4.00482" stroke="white" stroke-width="1.08501" stroke-linecap="round" stroke-linejoin="round"/>
<path d="M11.8179 31.0976L21.6209 27.2783L31.142 33.7179L39.9848 38.6114L48.9796 45.4523L58.0557 50.6767L67.7992 45.5608L76.9893 50.4216L86.3041 54.2681L95.7491 59.0096L105.33 63.149L115.057 66.431L123.298 65.9808L127.399 64.337L132.363 62.3406L137.745 60.1434L141.412 58.6516" stroke="white" stroke-width="1.08501" stroke-linecap="round" stroke-linejoin="round"/>
<path d="M133.172 156.797L123.678 161.332L120.705 171.472L120.971 179.94" stroke="white" stroke-width="1.08501" stroke-linecap="round" stroke-linejoin="round"/>
<path d="M86.8413 192.152L77.6404 187.079L67.7342 183.488L58.593 178.871L50.3252 173.055L48.996 163.301L49.327 151.588L49.7989 139.707L51.1823 127.311L51.5186 115.295L53.5693 102.426L55.5278 89.5146L56.1842 77.0641L55.7014 64.9716L52.2836 60.1162" stroke="white" stroke-width="1.08501" stroke-linecap="round" stroke-linejoin="round"/>
<path d="M14.6552 144.997L5.19385 140.56" stroke="white" stroke-width="1.08501" stroke-linecap="round" stroke-linejoin="round"/>
<path d="M4.14697 60.0732L14.0043 63.2741L24.2034 66.7244L36.3611 69.4749L46.137 73.2779L56.1842 77.0646L65.0543 81.4535L72.2696 86.6724L76.3926 93.3724L84.8503 98.3634L95.12 104.005L106.404 98.8083L114.992 93.8497L124.128 89.271L132.651 84.5512L140.859 79.826L149.338 75.3449L158.501 71.2707L168.863 67.804L179.898 64.7063L190.449 60.8979" stroke="white" stroke-width="1.08501" stroke-linecap="round" stroke-linejoin="round"/>
<path d="M21.6211 27.2785L30.6593 22.3905L39.4208 17.3073L48.2148 12.5549L59.9438 16.3957L69.34 12.4355L78.2155 17.0143L87.2102 24.707L96.3026 32.6005L105.487 41.4921L114.786 47.1451L124.215 51.4961L133.812 53.3025L143.072 48.3332L152.832 50.1235L160.096 50.6334" stroke="white" stroke-width="1.08501" stroke-linecap="round" stroke-linejoin="round"/>
<path d="M123.298 65.981L122.723 76.1908L124.128 89.2708L124.388 101.732L125.592 114.514L126.629 127.116L126.412 139.024L125.001 150.221L123.677 161.332L113.739 165.764L111.113 176.088L111.227 184.025L102.292 189.808L95.1849 195.548" stroke="white" stroke-width="1.08501" stroke-linecap="round" stroke-linejoin="round"/>
<path d="M42.2525 157.687L33.133 153.314L23.1617 149.435L14.6552 144.997L13.3695 134.163L13.2664 122.695" stroke="white" stroke-width="1.08501" stroke-linecap="round" stroke-linejoin="round"/>
<path d="M50.3251 173.056L42.513 166.746L33.6376 162.498L23.3788 160.822L14.3189 157.377L5.25903 152.592" stroke="white" stroke-width="1.08501" stroke-linecap="round" stroke-linejoin="round"/>
<path d="M67.1212 6.10978L76.8647 3.76611L87.7799 6.34845L96.6499 10.4607L105.623 18.5224L114.639 15.9725L121.437 14.7194" stroke="white" stroke-width="1.08501" stroke-linecap="round" stroke-linejoin="round"/>
<path d="M179.252 42.0562L178.742 52.06L179.898 64.7058L178.775 76.3047L178.704 88.2236L177.863 99.703L170.995 104.71L163.368 109.512L154.59 113.922L145.6 118.354L135.678 122.472L126.629 127.116L116.755 131.499L108.45 136.767L95.0768 143.131L80.8631 137.158L73.2951 131.57L72.796 119.629L67.0671 113.439L69.3186 100.245L72.2698 86.6719L71.3149 74.6663L70.9949 68.4654" stroke="white" stroke-width="1.08501" stroke-linecap="round" stroke-linejoin="round"/>
<path d="M57.5623 9.01807L67.1212 6.11017L78.617 8.8933L87.7799 6.34884L96.8181 3.67432L105.683 8.56774L114.639 15.9729L123.694 22.597" stroke="white" stroke-width="1.08501" stroke-linecap="round" stroke-linejoin="round"/>
<path d="M48.2151 12.5551L57.5625 9.01798L69.3403 12.4358L78.6172 8.89321L87.4926 13.9277L96.6501 10.461L105.683 8.56766L114.65 7.56396L121.437 14.7197L129.504 19.9929L137.978 24.8374L146.713 29.5139L157.557 30.8593" stroke="white" stroke-width="1.08501" stroke-linecap="round" stroke-linejoin="round"/>
<path d="M59.9061 131.988L51.1825 127.312L42.8008 122.608L33.41 118.469L23.1349 114.818L12.4584 111.427L2.96448 106.707" stroke="white" stroke-width="1.08501" stroke-linecap="round" stroke-linejoin="round"/>
<path d="M76.8647 3.76639L86.4617 1.41199L96.9755 0.646973L105.862 4.00519L114.65 7.56394" stroke="white" stroke-width="1.08501" stroke-linecap="round" stroke-linejoin="round"/>
<path d="M77.6404 187.079L76.8864 177.287" stroke="white" stroke-width="1.08501" stroke-linecap="round" stroke-linejoin="round"/>
<path d="M186.158 107.581L176.99 111.053L170.757 116.396L170.849 128.125L170.664 139.616" stroke="white" stroke-width="1.08501" stroke-linecap="round" stroke-linejoin="round"/>
<path d="M186.766 130.284L178.216 134.754" stroke="white" stroke-width="1.08501" stroke-linecap="round" stroke-linejoin="round"/>
<path d="M132.363 62.3408L131.712 71.7424L132.651 84.551L134.381 97.6145L134.767 109.978L135.678 122.472L135.396 134.304L133.421 145.203L125.001 150.222L115.48 154.844L106.486 159.851L105.536 171.211L95.1147 177.396L83.2717 171.927L75.0311 166.513L66.0689 161.592L57.264 156.726L49.3271 151.589L41.4715 146.543L32.5039 142.127L22.5923 138.248L13.3697 134.163L5.48706 129.389L2.99154 118.094L2.96439 106.707L3.69676 95.2167L4.03318 83.6125L2.99697 71.8943L4.14708 60.0731L3.39842 48.1325L1.22839 35.2588" stroke="white" stroke-width="1.08501" stroke-linecap="round" stroke-linejoin="round"/>
<path d="M33.6377 162.498L33.1331 153.314L32.5039 142.127L32.1295 130.718L33.4098 118.469L33.9252 106.463L35.6721 93.8386L36.513 81.5075L36.3611 69.4747L35.3791 57.6589L32.6232 50.8125" stroke="white" stroke-width="1.08501" stroke-linecap="round" stroke-linejoin="round"/>
<path d="M42.5132 166.746L42.2528 157.687" stroke="white" stroke-width="1.08501" stroke-linecap="round" stroke-linejoin="round"/>
<path d="M95.1852 195.548L86.8415 192.152L84.9753 182.805L83.2718 171.927L81.7311 160.822L80.8522 149.267L80.8631 137.158L80.6786 125.022L82.5991 111.812L84.8505 98.3634L86.1633 85.2347L86.9391 74.314" stroke="white" stroke-width="1.08501" stroke-linecap="round" stroke-linejoin="round"/>
<path d="M186.006 96.0688L177.863 99.7036" stroke="white" stroke-width="1.08501" stroke-linecap="round" stroke-linejoin="round"/>
<path d="M169.46 46.5371L168.326 55.3746L168.863 67.8034L169.823 80.3082L170.149 92.4496L170.995 104.71L170.756 116.396L163.812 121.56L155.067 126.031L146.148 130.539L135.396 134.304L126.412 139.024L117.026 143.673L107.766 148.523L95.0712 155.679L80.8521 149.266L73.6313 143.456L73.2949 131.57L66.123 125.96L59.3308 120.324L60.5026 107.775L53.5694 102.426L43.8531 98.4008L35.6721 93.8383L25.7116 90.133L14.5685 87.0028L4.03308 83.6121" stroke="white" stroke-width="1.08501" stroke-linecap="round" stroke-linejoin="round"/>
<path d="M86.9392 74.3138L95.1528 77.3953L105.021 73.207" stroke="white" stroke-width="1.08501" stroke-linecap="round" stroke-linejoin="round"/>
<path d="M78.7528 71.2435L86.9392 74.3141L95.3589 71.2109L105.287 68.1621L114.65 69.22" stroke="white" stroke-width="1.08501" stroke-linecap="round" stroke-linejoin="round"/>
<path d="M141.412 58.6514L140.522 67.3369L140.859 79.8254L141.759 92.455L143.598 105.41L145.6 118.354L146.148 130.539L144.336 141.503L142.036 152.082L139.757 162.531L129.65 166.648L120.704 171.471L111.113 176.088L103.203 181.714L95.1361 188.153L95.1849 195.548" stroke="white" stroke-width="1.08501" stroke-linecap="round" stroke-linejoin="round"/>
<path d="M160.096 50.6338L159.076 59.265L158.501 71.2708L159.152 83.6887L161.588 96.7849L163.368 109.512L163.813 121.561L162.174 132.542L160.617 143.424L151.666 147.862L149.393 158.294L150.136 169.242" stroke="white" stroke-width="1.08501" stroke-linecap="round" stroke-linejoin="round"/>
<path d="M185.67 118.979L178.14 123.188L170.849 128.125L162.174 132.541L154.107 137.359L144.336 141.503L133.421 145.203" stroke="white" stroke-width="1.08501" stroke-linecap="round" stroke-linejoin="round"/>
<path d="M150.836 54.5991L149.279 63.0243L149.338 75.3446L150.553 88.0555L151.899 100.729L154.59 113.922L155.067 126.031L154.107 137.358L151.665 147.861L142.036 152.082L133.171 156.797L129.651 166.648L129.585 174.173L120.97 179.94L111.227 184.025" stroke="white" stroke-width="1.08501" stroke-linecap="round" stroke-linejoin="round"/>
<path d="M139.757 162.531L139.53 171.005" stroke="white" stroke-width="1.08501" stroke-linecap="round" stroke-linejoin="round"/>
<path d="M186.153 84.4478L178.704 88.2236L170.149 92.4497L161.588 96.7844L151.899 100.728L143.598 105.41L134.766 109.978L125.593 114.513L115.768 118.87L107.397 124.045L95.0821 130.664L80.6785 125.022L72.7959 119.629" stroke="white" stroke-width="1.08501" stroke-linecap="round" stroke-linejoin="round"/>
<path d="M185.225 141.465L178.753 146.429L169.959 150.753L160.584 154.914L149.392 158.294L139.757 162.531" stroke="white" stroke-width="1.08501" stroke-linecap="round" stroke-linejoin="round"/>
<path d="M22.4296 45.8162L30.144 44.3243L39.9851 38.6118L49.696 31.8901L59.3092 26.1666L68.8194 21.6585L78.2156 17.0146L87.4925 13.9277L96.4818 19.9984L105.563 28.3475L114.726 37.6786L124.014 43.5974L133.454 46.885L143.072 48.3335L152.192 44.3081L161.225 39.138L168.288 32.6658L179.306 34.25" stroke="white" stroke-width="1.08501" stroke-linecap="round" stroke-linejoin="round"/>
<path d="M32.6233 50.8125L39.1117 50.3459L48.9799 45.4525L58.7179 40.163L68.3203 33.8266L77.8304 30.0723L87.2104 24.707L96.4818 19.9981L105.623 18.5225L114.694 25.2658L123.694 22.5967L132.857 28.8192L142.145 34.2768L151.584 37.8628L161.225 39.1377L171.017 40.2227L179.252 42.0564" stroke="white" stroke-width="1.08501" stroke-linecap="round" stroke-linejoin="round"/>
<path d="M123.694 22.5967L129.504 19.9927" stroke="white" stroke-width="1.08501" stroke-linecap="round" stroke-linejoin="round"/>
<path d="M42.4971 55.5213L48.1825 55.7111L58.0562 50.6768L67.2517 56.4218L76.5394 59.1126L85.979 63.1273L95.5597 65.0694L105.33 63.149L114.96 59.9644L124.448 57.0782L133.812 53.3024L143.588 53.9425L150.836 54.5991" stroke="white" stroke-width="1.08501" stroke-linecap="round" stroke-linejoin="round"/>
<path d="M52.2839 60.1167L57.3727 61.2885L61.0129 62.6991L66.6549 64.8854L76.0729 67.4406L85.979 63.1277L95.7496 59.01L105.379 56.5524L114.857 55.2992L124.215 51.4964L133.454 46.8851L142.584 42.1651L151.584 37.8631L157.557 30.8594L168.288 32.6658" stroke="white" stroke-width="1.08501" stroke-linecap="round" stroke-linejoin="round"/>
<path d="M70.9945 68.4655L76.0724 67.4403L85.6368 70.2613L95.3585 71.2107L105.021 73.2071L114.65 69.2197L118.762 67.6789L123.298 65.981" stroke="white" stroke-width="1.08501" stroke-linecap="round" stroke-linejoin="round"/>
<path d="M61.5225 64.2178L66.6546 64.8851L76.539 59.1128L86.3042 54.2682L95.9391 51.93L105.428 50.2646L114.786 47.1452L124.014 43.5971L133.128 39.5338L142.144 34.2768L146.712 29.5137" stroke="white" stroke-width="1.08501" stroke-linecap="round" stroke-linejoin="round"/>
</svg>
