<svg width="1364" height="256" viewBox="0 0 1364 256" fill="none" xmlns="http://www.w3.org/2000/svg">
<g clip-path="url(#clip0_1863_10234)">
<g clip-path="url(#clip1_1863_10234)">
<mask id="mask0_1863_10234" style="mask-type:luminance" maskUnits="userSpaceOnUse" x="0" y="-1" width="256" height="257">
<path d="M256 -0.430664H0V255.569H256V-0.430664Z" fill="white"/>
</mask>
<g mask="url(#mask0_1863_10234)">
<path d="M128 255.569C198.692 255.569 256 198.262 256 127.569C256 56.8769 198.692 -0.430664 128 -0.430664C57.3075 -0.430664 0 56.8769 0 127.569C0 198.262 57.3075 255.569 128 255.569Z" fill="#FF2A00"/>
<path d="M146.403 95.6953L164.805 127.57L146.403 159.444H109.597L91.1943 127.57L109.597 95.6953H146.403Z" fill="white"/>
<path d="M54.0323 72.8643L22.4482 127.57L54.0323 182.275L62.6926 167.275L39.7688 127.57L62.6926 87.8643L54.0323 72.8643Z" fill="white"/>
<path d="M193.307 87.8643L216.231 127.57L193.307 167.275L201.968 182.275L233.552 127.57L201.968 72.8643L193.307 87.8643Z" fill="white"/>
<path d="M93.666 96.0693H74.0361L55.8496 127.569L74.0361 159.069H93.666L75.4795 127.569L93.666 96.0693Z" fill="white"/>
<path d="M162.334 159.069L180.521 127.569L162.334 96.0693H181.964L200.151 127.569L181.964 159.069H162.334Z" fill="white"/>
<path d="M173.881 173.069H82.1191L91.925 190.053H164.075L173.881 173.069Z" fill="white"/>
<path d="M173.881 82.0693H82.1191L91.925 65.085H164.075L173.881 82.0693Z" fill="white"/>
</g>
<path fill-rule="evenodd" clip-rule="evenodd" d="M311 65.5693H331.027V169.587H423.174V189.569H311V65.5693ZM453.103 189.569V65.5693H473.13V189.569H453.103ZM503.155 65.5693H523.182V83.0532L540.786 68.8842C543.451 66.7389 546.769 65.5693 550.191 65.5693H605.383C610.906 65.5693 615.383 70.0465 615.383 75.5693V189.569H595.356V85.6302H551.95L523.182 108.681V189.569H503.155V65.5693ZM786.164 65.5693H806.191V83.0532L823.795 68.8842C826.46 66.7389 829.779 65.5693 833.2 65.5693H888.393C893.915 65.5693 898.393 70.0464 898.393 75.5693V106.126H878.365V85.6302H834.96L806.191 108.681V189.569H786.164V65.5693ZM1030 65.5693C1035.52 65.5693 1040 70.0465 1040 75.5693V189.569H1019.97V169.297L998.063 186.395C995.427 188.452 992.179 189.569 988.835 189.569H938.304C932.781 189.569 928.304 185.092 928.304 179.569V126.687C928.304 121.165 932.781 116.687 938.304 116.687H1019.97V85.6302H948.331V106.126H928.304V75.5693C928.304 70.0465 932.781 65.5693 938.304 65.5693H1030ZM1019.97 136.67H948.331V169.587H987.094L1019.97 143.929V136.67ZM645.073 75.5693C645.073 70.0465 649.55 65.5693 655.073 65.5693H746.847C752.37 65.5693 756.847 70.0465 756.847 75.5693V126.67C756.847 132.193 752.37 136.67 746.847 136.67H665.1V169.587H756.736V189.569H655.073C649.55 189.569 645.073 185.092 645.073 179.569V75.5693ZM665.1 116.687H736.82V85.6302H665.1V116.687Z" fill="#0E2630"/>
</g>
<path d="M1182.83 162.899C1182.83 172.939 1180.73 179.633 1176.55 182.98C1172.53 186.327 1165.34 188 1154.96 188H1088.7C1078.32 188 1071.13 186.327 1067.11 182.98C1063.09 179.633 1061.09 172.939 1061.09 162.899V106.923C1061.09 96.8826 1063.09 90.1889 1067.11 86.8421C1071.13 83.4952 1078.32 81.8218 1088.7 81.8218H1154.96C1168.18 81.8218 1176.38 84.583 1179.56 90.1052C1181.74 93.7867 1182.83 102.823 1182.83 117.215L1156.72 120.98V101.401H1086.94V167.668H1156.72V145.077L1182.83 150.348V162.899ZM1331.31 188H1313.49L1223.63 116.462V188H1200.03V81.8218H1217.86L1307.97 152.356V81.8218H1331.31V188Z" fill="#0E2630"/>
</g>
<defs>
<clipPath id="clip0_1863_10234">
<rect width="1364" height="256" fill="white"/>
</clipPath>
<clipPath id="clip1_1863_10234">
<rect width="1040" height="256" fill="white" transform="translate(0 -0.430664)"/>
</clipPath>
</defs>
</svg>
