<svg width="41" height="17" viewBox="0 0 41 17" fill="none" xmlns="http://www.w3.org/2000/svg">
<g clip-path="url(#clip0_509_9979)">
<path d="M34.2006 9.26831H33.3581C33.3257 9.0883 33.2654 8.92988 33.1772 8.79307C33.089 8.65626 32.981 8.54015 32.8532 8.44475C32.7254 8.34934 32.5823 8.27733 32.4239 8.22873C32.2673 8.18013 32.1007 8.15582 31.9243 8.15582C31.6057 8.15582 31.3204 8.23593 31.0684 8.39614C30.8181 8.55635 30.6201 8.79127 30.4743 9.1009C30.3303 9.41052 30.2583 9.78855 30.2583 10.235C30.2583 10.685 30.3303 11.0648 30.4743 11.3745C30.6201 11.6841 30.819 11.9181 31.0711 12.0765C31.3231 12.2349 31.6066 12.3141 31.9216 12.3141C32.0962 12.3141 32.2619 12.2907 32.4185 12.2439C32.5769 12.1953 32.72 12.1242 32.8478 12.0306C32.9756 11.937 33.0836 11.8227 33.1718 11.6877C33.2618 11.5509 33.3239 11.3943 33.3581 11.2179L34.2006 11.2206C34.1556 11.4924 34.0683 11.7426 33.9387 11.9712C33.8109 12.198 33.6462 12.3943 33.4445 12.5599C33.2447 12.7237 33.0161 12.8506 32.7587 12.9406C32.5013 13.0306 32.2205 13.0756 31.9162 13.0756C31.4374 13.0756 31.0108 12.9622 30.6363 12.7354C30.2619 12.5068 29.9667 12.18 29.7507 11.7552C29.5364 11.3304 29.4293 10.8236 29.4293 10.235C29.4293 9.64454 29.5373 9.1378 29.7534 8.71477C29.9694 8.28993 30.2646 7.96411 30.639 7.73729C31.0135 7.50867 31.4392 7.39436 31.9162 7.39436C32.2096 7.39436 32.4833 7.43667 32.7371 7.52127C32.9927 7.60408 33.2222 7.72649 33.4256 7.8885C33.6291 8.04872 33.7974 8.24493 33.9306 8.47715C34.0638 8.70757 34.1538 8.97129 34.2006 9.26831ZM39.6625 7.46997V13H38.8956L36.0847 8.94428H36.0334V13H35.199V7.46997H35.9713L38.7849 11.5311H38.8362V7.46997H39.6625Z" fill="#75BAE7"/>
<g clip-path="url(#clip1_509_9979)">
<path d="M16.1299 8.54303C16.1299 8.76873 16.2427 8.95157 16.4684 9.09165C16.6941 9.22397 16.9665 9.33288 17.2855 9.4185C17.6046 9.49633 17.9236 9.5897 18.2427 9.69865C18.5618 9.79981 18.8341 9.9788 19.0598 10.2356C19.2855 10.4846 19.3983 10.8076 19.3983 11.2045C19.3983 11.7336 19.1921 12.1578 18.7797 12.4768C18.375 12.7958 17.8536 12.9554 17.2155 12.9554C16.6474 12.9554 16.161 12.8309 15.7564 12.5818C15.3517 12.3328 15.0638 12.0021 14.8926 11.5897L15.768 11.0877C15.8614 11.3679 16.0365 11.5897 16.2933 11.7531C16.5501 11.9165 16.8575 11.9982 17.2155 11.9982C17.5501 11.9982 17.8264 11.936 18.0443 11.8115C18.2621 11.6791 18.3711 11.4768 18.3711 11.2045C18.3711 10.9788 18.2583 10.7998 18.0326 10.6675C17.8069 10.5274 17.5345 10.4185 17.2155 10.3407C16.8964 10.2551 16.5774 10.1578 16.2583 10.0488C15.9392 9.93989 15.6669 9.7609 15.4412 9.51187C15.2155 9.26284 15.1027 8.94382 15.1027 8.55472C15.1027 8.04888 15.2972 7.63255 15.6863 7.30569C16.0832 6.97888 16.5774 6.81543 17.1688 6.81543C17.6435 6.81543 18.0637 6.92438 18.4295 7.14229C18.803 7.3524 19.0831 7.64813 19.2699 8.02944L18.4178 8.50801C18.2077 8.00996 17.7913 7.76093 17.1688 7.76093C16.8809 7.76093 16.6357 7.83097 16.4334 7.97105C16.2311 8.10337 16.1299 8.29401 16.1299 8.54303Z" fill="#75BAE7"/>
<path d="M24.5696 6.97949H25.5851V12.8159H24.5696V11.9755C24.1572 12.6369 23.5268 12.9677 22.6786 12.9677C21.9938 12.9677 21.4452 12.7537 21.0328 12.3257C20.6203 11.8899 20.4141 11.3023 20.4141 10.5631V6.97949H21.4296V10.5047C21.4296 10.9794 21.558 11.349 21.8148 11.6136C22.0716 11.8704 22.4257 11.9989 22.8771 11.9989C23.3829 11.9989 23.7914 11.8432 24.1027 11.5319C24.414 11.2129 24.5696 10.7265 24.5696 10.0728V6.97949Z" fill="#75BAE7"/>
<path d="M27.6457 5.90528C27.4511 5.90528 27.2877 5.83909 27.1555 5.70681C27.0232 5.57453 26.957 5.41502 26.957 5.22824C26.957 5.04146 27.0232 4.88195 27.1555 4.74966C27.2877 4.60959 27.4511 4.53955 27.6457 4.53955C27.8325 4.53955 27.992 4.60959 28.1243 4.74966C28.2566 4.88195 28.3227 5.04146 28.3227 5.22824C28.3227 5.41502 28.2566 5.57453 28.1243 5.70681C27.992 5.83909 27.8325 5.90528 27.6457 5.90528ZM27.1321 12.8039V6.96748H28.1476V12.8039H27.1321Z" fill="#75BAE7"/>
<path fill-rule="evenodd" clip-rule="evenodd" d="M1.67354 13.022C2.66275 14.7355 4.43459 15.7584 6.41301 15.7584C8.39143 15.7584 10.1629 14.7355 11.1525 13.022C12.1417 11.3088 12.1417 9.26307 11.1525 7.54953L6.98401 0.329668C6.73024 -0.10989 6.09578 -0.109889 5.84201 0.329669L1.67354 7.54953C0.684339 9.26272 0.684339 11.3084 1.67354 13.022ZM5.23875 3.76447L6.12748 2.22508C6.25439 2.0053 6.57162 2.0053 6.69853 2.22508L10.1176 8.14722C10.7458 9.23522 10.8637 10.4944 10.4713 11.6467C10.4305 11.4587 10.3734 11.2663 10.2964 11.072C9.82415 9.8802 8.75626 8.96049 7.12189 8.33826C5.9982 7.91203 5.28095 7.28514 4.9895 6.47492C4.61411 5.43063 5.0062 4.29186 5.23875 3.76447ZM3.72327 6.38939L2.7084 8.14722C1.93509 9.48662 1.93509 11.0855 2.7084 12.4249C3.48171 13.7643 4.8664 14.5636 6.41301 14.5636C7.44024 14.5636 8.39631 14.2107 9.14912 13.5812C9.24733 13.334 9.55135 12.4292 9.17572 11.4967C8.82881 10.6355 7.99391 9.94809 6.6941 9.45295C5.2248 8.8956 4.27024 8.02551 3.85747 6.86756C3.80061 6.70814 3.75644 6.54836 3.72327 6.38939Z" fill="#75BAE7"/>
</g>
</g>
<defs>
<clipPath id="clip0_509_9979">
<rect width="41" height="16.0277" fill="white"/>
</clipPath>
<clipPath id="clip1_509_9979">
<rect width="27.7642" height="16.1211" fill="white" transform="translate(0.931641)"/>
</clipPath>
</defs>
</svg>
