<?xml version="1.0" encoding="UTF-8"?>
<svg version="1.1" xmlns="http://www.w3.org/2000/svg" xmlns:xlink="http://www.w3.org/1999/xlink">
<defs>
<clipPath><path d="M0 0h20v20H0z"/></clipPath><clipPath><path d="M0 0h20v20H0z"/></clipPath>
</defs>
<symbol id="i-arrow" viewBox="0 0 14 14" xmlns="http://www.w3.org/2000/svg"><path d="M5 13.998a.997.997 0 01-.769-1.636l4.47-5.348-4.31-5.358A.998.998 0 014.54.249a.998.998 0 011.456.15l4.82 5.986a.998.998 0 010 1.267l-4.99 5.987a.998.998 0 01-.827.36z"/></symbol>
<symbol id="i-cross" viewBox="0 0 15 14" xmlns="http://www.w3.org/2000/svg"><path d="M8.645 6.999l5.012-5A1.17 1.17 0 0012.002.342L7 5.355l-5-5.012A1.17 1.17 0 00.344 1.998L5.357 7l-5.012 5a1.166 1.166 0 000 1.656 1.165 1.165 0 001.655 0l5.001-5.012 5 5.012a1.165 1.165 0 001.656 0 1.165 1.165 0 000-1.655L8.645 6.999z"/></symbol>
<symbol id="i-discord" viewBox="0 0 20 20" xmlns="http://www.w3.org/2000/svg"><path d="M8.24 8.39c-.57 0-1.02.5-1.02 1.11 0 .61.46 1.11 1.02 1.11.57 0 1.02-.5 1.02-1.11.01-.61-.45-1.11-1.02-1.11zm3.65 0c-.57 0-1.02.5-1.02 1.11 0 .61.46 1.11 1.02 1.11.57 0 1.02-.5 1.02-1.11 0-.61-.45-1.11-1.02-1.11z"/><path d="M16.75 0H3.35C2.22 0 1.3.92 1.3 2.06v13.52c0 1.14.92 2.06 2.05 2.06h11.34l-.53-1.85 1.28 1.19 1.21 1.12L18.8 20V2.06C18.8.92 17.88 0 16.75 0zm-3.86 13.06s-.36-.43-.66-.81c1.31-.37 1.81-1.19 1.81-1.19-.41.27-.8.46-1.15.59-.5.21-.98.35-1.45.43-.96.18-1.84.13-2.59-.01-.57-.11-1.06-.27-1.47-.43-.23-.09-.48-.2-.73-.34-.03-.02-.06-.03-.09-.05a.138.138 0 01-.04-.03c-.18-.1-.28-.17-.28-.17s.48.8 1.75 1.18c-.3.38-.67.83-.67.83-2.21-.07-3.05-1.52-3.05-1.52 0-3.22 1.44-5.83 1.44-5.83 1.44-1.08 2.81-1.05 2.81-1.05l.1.12c-1.8.52-2.63 1.31-2.63 1.31s.22-.12.59-.29c1.07-.47 1.92-.6 2.27-.63.06-.01.11-.02.17-.02a8.152 8.152 0 015.03.94s-.79-.75-2.49-1.27l.14-.16s1.37-.03 2.81 1.05c0 0 1.44 2.61 1.44 5.83 0 0-.85 1.45-3.06 1.52z"/></symbol>
<symbol id="i-github" viewBox="0 0 20 20" xmlns="http://www.w3.org/2000/svg"><path fill-rule="evenodd" clip-rule="evenodd" d="M10 0C4.475 0 0 4.588 0 10.253c0 4.537 2.862 8.369 6.838 9.727.5.09.687-.218.687-.487 0-.243-.013-1.05-.013-1.91C5 18.059 4.35 16.957 4.15 16.38c-.113-.295-.6-1.205-1.025-1.448-.35-.192-.85-.667-.013-.68.788-.012 1.35.744 1.538 1.052.9 1.55 2.337 1.114 2.912.845.088-.666.35-1.115.638-1.371-2.225-.256-4.55-1.14-4.55-5.062 0-1.115.387-2.038 1.025-2.756-.1-.256-.45-1.307.1-2.717 0 0 .837-.269 2.75 1.051.8-.23 1.65-.346 2.5-.346.85 0 1.7.115 2.5.346 1.912-1.333 2.75-1.05 2.75-1.05.55 1.409.2 2.46.1 2.716.637.718 1.025 1.628 1.025 2.756 0 3.934-2.337 4.806-4.562 5.062.362.32.675.936.675 1.897 0 1.371-.013 2.473-.013 2.82 0 .268.188.589.688.486a10.04 10.04 0 004.932-3.74A10.447 10.447 0 0020 10.253C20 4.588 15.525 0 10 0z"/></symbol>
<symbol id="i-heart" viewBox="0 0 22 17" xmlns="http://www.w3.org/2000/svg"><path d="M11 17a.998.998 0 01-.71-.29L2.52 8.93a5.26 5.26 0 010-7.4 5.24 5.24 0 017.4 0L11 2.61l1.08-1.08a5.24 5.24 0 017.4 0 5.26 5.26 0 010 7.4l-7.77 7.78A1 1 0 0111 17z"/></symbol>
<symbol id="i-notion" viewBox="0 0 20 20" xmlns="http://www.w3.org/2000/svg"><g clip-path="url(#clip0_288_54)"><g clip-path="url(#clip1_288_54)"><path d="M3.716 3.506c.621.505.855.467 2.023.389l11.013-.661c.233 0 .039-.233-.039-.272l-1.83-1.322c-.35-.272-.817-.584-1.712-.506l-10.663.778c-.388.039-.466.234-.311.389l1.519 1.205zm.66 2.567V17.66c0 .622.311.856 1.012.817l12.103-.7c.7-.039.779-.467.779-.973V5.294c0-.504-.194-.777-.623-.738l-12.648.739c-.467.039-.622.272-.622.777v.001zm11.948.621c.078.35 0 .7-.35.74l-.583.117v8.553c-.507.273-.973.428-1.363.428-.623 0-.779-.195-1.245-.777L8.968 9.766v5.794l1.207.273s0 .7-.973.7l-2.685.155c-.078-.155 0-.544.272-.621l.7-.195v-7.66l-.97-.079c-.079-.35.116-.855.66-.894l2.88-.194 3.97 6.066V7.744l-1.012-.116c-.078-.428.233-.739.622-.777l2.685-.157zM1.614.862L12.704.046c1.362-.117 1.713-.04 2.568.583l3.541 2.488c.584.428.779.544.779 1.011v13.648c0 .855-.311 1.362-1.4 1.439l-12.882.778c-.817.04-1.207-.077-1.635-.622l-2.608-3.384c-.466-.622-.66-1.088-.66-1.633V2.222c0-.699.311-1.283 1.205-1.36z"/></g></g></symbol>
<symbol id="i-telegram" class="icon" viewBox="0 0 1024 1024" xmlns="http://www.w3.org/2000/svg"><path d="M417.28 795.733l11.947-180.48L756.907 320c14.506-13.227-2.987-19.627-22.187-8.107L330.24 567.467 155.307 512c-37.547-10.667-37.974-36.693 8.533-55.467l681.387-262.826c31.146-14.08 61.013 7.68 49.066 55.466L778.24 795.733c-8.107 38.827-31.573 48.214-64 30.294L537.6 695.467l-84.907 82.346c-9.813 9.814-17.92 17.92-35.413 17.92z"/></symbol>
<symbol id="i-twiiter" viewBox="0 0 20 20" xmlns="http://www.w3.org/2000/svg"><path d="M6.292 18.126c7.545 0 11.673-6.253 11.673-11.674 0-.176-.004-.355-.012-.531A8.332 8.332 0 0020 3.797a8.09 8.09 0 01-2.355.644 4.125 4.125 0 001.804-2.269 8.247 8.247 0 01-2.605.996A4.108 4.108 0 009.85 6.909a11.654 11.654 0 01-8.456-4.284 4.108 4.108 0 001.27 5.476 4.108 4.108 0 01-1.86-.512v.05a4.102 4.102 0 003.293 4.024 4.078 4.078 0 01-1.851.07 4.111 4.111 0 003.831 2.852A8.23 8.23 0 010 16.283a11.64 11.64 0 006.292 1.843z"/></symbol>
<symbol id="i-youtube" class="icon" viewBox="0 0 1024 1024" xmlns="http://www.w3.org/2000/svg"><path d="M853.333 191.573l-62.293-6.4a2735.787 2735.787 0 00-560.64 0l-59.733 6.4a144.213 144.213 0 00-128 145.494v349.866a144.213 144.213 0 00128 145.494l62.293 6.4a2735.787 2735.787 0 00560.64 0l59.733-6.4a144.213 144.213 0 00128-145.494V337.067a144.213 144.213 0 00-128-145.494zM640 538.453L474.027 649.387a32 32 0 01-47.36-26.454V401.067a32 32 0 0149.92-26.454L642.56 485.547a31.573 31.573 0 010 52.906z"/></symbol>
<symbol id="i-logo" viewBox="0 0 200 200" xmlns="http://www.w3.org/2000/svg"><path fill-rule="evenodd" clip-rule="evenodd" d="M39.793 165.271C52.348 187.018 74.835 200 99.945 200c25.109 0 47.592-12.982 60.152-34.729 12.554-21.744 12.554-47.707 0-69.455L107.192 4.184c-3.221-5.579-11.273-5.579-14.494 0L39.793 95.816c-12.555 21.743-12.555 47.707 0 69.455zM85.041 47.777l11.28-19.537c1.61-2.79 5.637-2.79 7.247 0l43.394 75.162c7.973 13.808 9.469 29.79 4.489 44.414a46.748 46.748 0 00-2.219-7.293c-5.994-15.127-19.548-26.799-40.29-34.697-14.262-5.409-23.365-13.365-27.064-23.648-4.764-13.254.212-27.707 3.163-34.4zM65.807 81.092l-12.88 22.31c-9.815 16.999-9.815 37.292 0 54.291 9.815 16.999 27.389 27.144 47.018 27.144 13.037 0 25.171-4.48 34.726-12.469 1.246-3.137 5.104-14.62.337-26.456-4.403-10.93-14.999-19.654-31.496-25.938-18.648-7.074-30.763-18.117-36.001-32.813a46.054 46.054 0 01-1.704-6.069z"/></symbol>
</svg>