<svg width="981" height="981" viewBox="0 0 981 981" fill="none" xmlns="http://www.w3.org/2000/svg">
<path fill-rule="evenodd" clip-rule="evenodd" d="M195.185 810.653C256.766 917.325 367.068 981 490.23 981C613.392 981 723.671 917.325 785.275 810.653C846.856 704 846.856 576.651 785.275 469.978L525.776 20.5227C509.978 -6.84093 470.481 -6.84088 454.683 20.5227L195.185 469.978C133.605 576.628 133.605 703.98 195.185 810.653ZM417.129 234.348L472.455 138.517C480.355 124.835 500.104 124.835 508.004 138.517L720.85 507.186C759.957 574.917 767.297 653.305 742.87 725.036C740.328 713.333 736.774 701.36 731.982 689.264C702.582 615.068 636.103 557.814 534.359 519.078C464.407 492.545 419.756 453.519 401.613 403.081C378.243 338.071 402.652 267.179 417.129 234.348ZM322.786 397.756L259.608 507.186C211.468 590.567 211.468 690.103 259.608 773.484C307.748 856.865 393.949 906.623 490.23 906.623C554.177 906.623 613.695 884.653 660.56 845.466C666.673 830.078 685.599 773.752 662.216 715.697C640.619 662.089 588.645 619.295 507.728 588.471C416.261 553.775 356.837 499.609 331.14 427.524C327.601 417.599 324.851 407.653 322.786 397.756Z" fill="#75BAE7"/>
</svg>
