<svg width="256" height="256" viewBox="0 0 256 256" fill="none" xmlns="http://www.w3.org/2000/svg">
<g clip-path="url(#clip0_1863_10235)">
<mask id="mask0_1863_10235" style="mask-type:luminance" maskUnits="userSpaceOnUse" x="0" y="0" width="256" height="256">
<path d="M256 0H0V256H256V0Z" fill="white"/>
</mask>
<g mask="url(#mask0_1863_10235)">
<path d="M128 256C198.692 256 256 198.692 256 128C256 57.3075 198.692 0 128 0C57.3075 0 0 57.3075 0 128C0 198.692 57.3075 256 128 256Z" fill="#FF2A00"/>
<path d="M146.404 96.126L164.806 128L146.404 159.874H109.598L91.1953 128L109.598 96.126H146.404Z" fill="white"/>
<path d="M54.0314 73.2949L22.4473 128L54.0314 182.705L62.6917 167.705L39.7679 128L62.6917 88.2949L54.0314 73.2949Z" fill="white"/>
<path d="M193.307 88.2949L216.231 128L193.307 167.705L201.968 182.705L233.552 128L201.968 73.2949L193.307 88.2949Z" fill="white"/>
<path d="M93.666 96.5H74.0361L55.8496 128L74.0361 159.5H93.666L75.4795 128L93.666 96.5Z" fill="white"/>
<path d="M162.334 159.5L180.521 128L162.334 96.5H181.964L200.151 128L181.964 159.5H162.334Z" fill="white"/>
<path d="M173.881 173.5H82.1191L91.925 190.484H164.075L173.881 173.5Z" fill="white"/>
<path d="M173.881 82.4999H82.1191L91.925 65.5156H164.075L173.881 82.4999Z" fill="white"/>
</g>
</g>
<defs>
<clipPath id="clip0_1863_10235">
<rect width="256" height="256" fill="white"/>
</clipPath>
</defs>
</svg>
