<svg width="20" height="20" viewBox="0 0 20 20" fill="none" xmlns="http://www.w3.org/2000/svg">
<path d="M8.24003 8.38965C7.67003 8.38965 7.22003 8.88965 7.22003 9.49965C7.22003 10.1096 7.68003 10.6096 8.24003 10.6096C8.81003 10.6096 9.26003 10.1096 9.26003 9.49965C9.27003 8.88965 8.81003 8.38965 8.24003 8.38965ZM11.89 8.38965C11.32 8.38965 10.87 8.88965 10.87 9.49965C10.87 10.1096 11.33 10.6096 11.89 10.6096C12.46 10.6096 12.91 10.1096 12.91 9.49965C12.91 8.88965 12.46 8.38965 11.89 8.38965Z" fill="black"/>
<path d="M16.75 0H3.34999C2.21999 0 1.29999 0.92 1.29999 2.06V15.58C1.29999 16.72 2.21999 17.64 3.34999 17.64H14.69L14.16 15.79L15.44 16.98L16.65 18.1L18.8 20V2.06C18.8 0.92 17.88 0 16.75 0ZM12.89 13.06C12.89 13.06 12.53 12.63 12.23 12.25C13.54 11.88 14.04 11.06 14.04 11.06C13.63 11.33 13.24 11.52 12.89 11.65C12.39 11.86 11.91 12 11.44 12.08C10.48 12.26 9.59999 12.21 8.84999 12.07C8.27999 11.96 7.78999 11.8 7.37999 11.64C7.14999 11.55 6.89999 11.44 6.64999 11.3C6.61999 11.28 6.58999 11.27 6.55999 11.25C6.53999 11.24 6.52999 11.23 6.51999 11.22C6.33999 11.12 6.23999 11.05 6.23999 11.05C6.23999 11.05 6.71999 11.85 7.98999 12.23C7.68999 12.61 7.31999 13.06 7.31999 13.06C5.10999 12.99 4.26999 11.54 4.26999 11.54C4.26999 8.32 5.70999 5.71 5.70999 5.71C7.14999 4.63 8.51999 4.66 8.51999 4.66L8.61999 4.78C6.81999 5.3 5.98999 6.09 5.98999 6.09C5.98999 6.09 6.20999 5.97 6.57999 5.8C7.64999 5.33 8.49999 5.2 8.84999 5.17C8.90999 5.16 8.95999 5.15 9.01999 5.15C9.62999 5.07 10.32 5.05 11.04 5.13C11.99 5.24 13.01 5.52 14.05 6.09C14.05 6.09 13.26 5.34 11.56 4.82L11.7 4.66C11.7 4.66 13.07 4.63 14.51 5.71C14.51 5.71 15.95 8.32 15.95 11.54C15.95 11.54 15.1 12.99 12.89 13.06V13.06Z" fill="black"/>
</svg>
