<svg width="256" height="256" viewBox="0 0 256 256" fill="none" xmlns="http://www.w3.org/2000/svg">
<path d="M54.0314 73.2949L22.4473 128L54.0314 182.705L62.6917 167.705L39.7679 128L62.6917 88.2949L54.0314 73.2949Z" fill="white"/>
<path d="M193.307 88.2949L216.231 128L193.307 167.705L201.968 182.705L233.552 128L201.968 73.2949L193.307 88.2949Z" fill="white"/>
<path d="M93.6641 96.5H74.0342L55.8477 128L74.0342 159.5H93.6641L75.4776 128L93.6641 96.5Z" fill="white"/>
<path d="M162.334 159.5L180.521 128L162.334 96.5H181.964L200.151 128L181.964 159.5H162.334Z" fill="white"/>
<path d="M173.879 173.5H82.1172L91.9231 190.484H164.073L173.879 173.5Z" fill="white"/>
<path d="M173.879 82.4999H82.1172L91.9231 65.5156H164.073L173.879 82.4999Z" fill="white"/>
</svg>
