<svg width="200" height="200" viewBox="0 0 200 200" fill="none" xmlns="http://www.w3.org/2000/svg">
<path fill-rule="evenodd" clip-rule="evenodd" d="M39.793 165.271C52.3476 187.018 74.8353 200 99.9446 200C125.054 200 147.537 187.018 160.097 165.271C172.651 143.527 172.651 117.564 160.097 95.8161L107.192 4.18403C103.971 -1.39469 95.9185 -1.39467 92.6977 4.18405L39.793 95.8161C27.2383 117.559 27.2383 143.523 39.793 165.271ZM85.0414 47.7774L96.3209 28.24C97.9316 25.4505 101.958 25.4505 103.568 28.24L146.962 103.402C154.935 117.21 156.431 133.192 151.451 147.816C150.933 145.43 150.208 142.989 149.232 140.523C143.238 125.396 129.684 113.724 108.942 105.826C94.6801 100.417 85.577 92.4606 81.878 82.1776C77.1136 68.9238 82.0899 54.4708 85.0414 47.7774ZM65.8074 81.092L52.927 103.402C43.1124 120.401 43.1124 140.694 52.927 157.693C62.7415 174.692 80.3155 184.837 99.9446 184.837C112.982 184.837 125.116 180.357 134.671 172.368C135.917 169.231 139.775 157.748 135.008 145.912C130.605 134.982 120.009 126.258 103.512 119.974C84.8644 112.9 72.7493 101.857 67.5106 87.1608C66.789 85.1375 66.2284 83.1096 65.8074 81.092Z" fill="#75BAE7"/>
</svg>
