<svg width="20" height="20" viewBox="0 0 20 20" fill="none" xmlns="http://www.w3.org/2000/svg">
<g clip-path="url(#clip0_288_54)">
<g clip-path="url(#clip1_288_54)">
<path d="M3.7158 3.50646C4.33747 4.01146 4.5708 3.97313 5.73914 3.89479L16.7516 3.23396C16.985 3.23396 16.7908 3.00063 16.7133 2.96229L14.8833 1.63979C14.5333 1.36813 14.0658 1.05646 13.1708 1.13396L2.5083 1.91229C2.11997 1.95063 2.04164 2.14563 2.19664 2.30063L3.7158 3.50646ZM4.37664 6.07313V17.6598C4.37664 18.2823 4.68747 18.5156 5.3883 18.4765L17.4908 17.7765C18.1916 17.7381 18.27 17.3098 18.27 16.804V5.29479C18.27 4.78979 18.0758 4.51729 17.6466 4.55563L4.99914 5.29479C4.53247 5.33396 4.37664 5.56729 4.37664 6.07229V6.07313ZM16.3241 6.69396C16.4016 7.04396 16.3241 7.39396 15.9741 7.43396L15.3908 7.55063V16.104C14.8841 16.3765 14.4175 16.5323 14.0283 16.5323C13.405 16.5323 13.2491 16.3373 12.7825 15.7548L8.9683 9.76646V15.5598L10.175 15.8331C10.175 15.8331 10.175 16.5331 9.20164 16.5331L6.51664 16.6881C6.43914 16.5331 6.51664 16.144 6.78914 16.0665L7.48914 15.8723V8.21146L6.5183 8.13313C6.43997 7.78313 6.63497 7.27813 7.17914 7.23896L10.0591 7.0448L14.0291 13.1106V7.74396L13.0166 7.62813C12.9391 7.19979 13.25 6.88896 13.6391 6.85063L16.3241 6.69396ZM1.6133 0.862293L12.705 0.0456266C14.0666 -0.0710401 14.4175 0.00645997 15.2733 0.62896L18.8141 3.11729C19.3975 3.54479 19.5925 3.66146 19.5925 4.12813V17.7765C19.5925 18.6315 19.2816 19.1381 18.1925 19.2148L5.3108 19.9931C4.49414 20.0323 4.10414 19.9156 3.6758 19.3706L1.0683 15.9873C0.601637 15.3648 0.407471 14.899 0.407471 14.354V2.22229C0.407471 1.52313 0.719137 0.93896 1.6133 0.862293Z" fill="black"/>
</g>
</g>
<defs>
<clipPath id="clip0_288_54">
<rect width="20" height="20" fill="white"/>
</clipPath>
<clipPath id="clip1_288_54">
<rect width="20" height="20" fill="white"/>
</clipPath>
</defs>
</svg>
